# xmcd
#
# Track frame offsets: 
#        150
#        23780
#        47694
#        72022
#        93203
#        109903
#        127333
#        152483
#        166645
#        185770
#        203966
#        225490
#        248994
#        264988
#
# Disc length: 3846 seconds
#
# Revision: 0
# Processed by: cddbd v1.4PL0 Copyright (c) Steve Scherf et al.
# Submitted via: ExactAudioCopy v0.90b2
#
DISCID=b60f040e
DTITLE=Various Artist - Mustique Blues festival 2001 Dana Gillespie
DYEAR=2001
DGENRE=
TTITLE0=Woke Up This Morning/B.B.King. Jules Taub
TTITLE1=Catfish Blues/Robert Petway
TTITLE2=Shack Bully/Larry Garner
TTITLE3=Ten Ton Blocks/Dana Gillespie
TTITLE4=Travelling Blues/Steve Clayton
TTITLE5=Sugar Caoted Love/J.D.Miller
TTITLE6=I Ain't The One/Larry Garner
TTITLE7=Tough Love/Dana Gillespie
TTITLE8=Jumper On The Line/R.L.Burnside
TTITLE9=Flip, Flop And Fly/Lou Willie Turner. Charles Calhoun
TTITLE10=Blues In The Night/Harold Arlen. Johny Mercer
TTITLE11=Big Boss Man/Luther Dixon. Al Smith
TTITLE12=Ain't That Loving You Baby/Jimmy Read
TTITLE13=Big Legged Woman/Larry Garner
EXTD=Recorded live at Basil's bar on Mustique Jan-Feb 2001\n\n\nDana G
EXTD=illespie\nEarl Green\nDino Baptiste\nFred P.G.\nJavier Garcia\nEv
EXTD=an Jenkins\nMike Paice\nBig Joe Louis\nSteve Clayton\nMarisa Lind
EXTD=say\nFelix Dennis\n
EXTT0=
EXTT1=
EXTT2=
EXTT3=
EXTT4=
EXTT5=
EXTT6=
EXTT7=
EXTT8=
EXTT9=
EXTT10=
EXTT11=
EXTT12=
EXTT13=
PLAYORDER=
